<svg width="28" height="28" viewBox="0 0 28 28" fill="none" xmlns="http://www.w3.org/2000/svg">
    <rect x="0.29834" y="0.132935" width="27" height="27" rx="5" fill="#1E8AFF"/>
    <path d="M13.8099 8.85039C13.2541 8.85039 12.7832 8.66511 12.3972 8.29454C12.0266 7.92398 11.8413 7.47622 11.8413 6.95126C11.8413 6.42629 12.0266 5.97853 12.3972 5.60797C12.7832 5.23741 13.2541 5.05212 13.8099 5.05212C14.0878 5.05212 14.3426 5.10616 14.5742 5.21425C14.8058 5.30689 15.0065 5.43813 15.1764 5.60797C15.3616 5.77781 15.5006 5.97853 15.5932 6.21013C15.7013 6.44173 15.7554 6.68877 15.7554 6.95126C15.7554 7.21374 15.7013 7.46078 15.5932 7.69238C15.5006 7.92398 15.3616 8.1247 15.1764 8.29454C15.0065 8.46438 14.8058 8.60334 14.5742 8.71143C14.3426 8.80407 14.0878 8.85039 13.8099 8.85039ZM15.408 10.1937V22.2138H12.2119V10.1937H15.408Z" fill="white"/>
</svg>
