<svg width="31" height="31" viewBox="0 0 31 31" fill="none" xmlns="http://www.w3.org/2000/svg">
    <mask id="mask0_550_139" style="mask-type:luminance" maskUnits="userSpaceOnUse" x="0" y="0" width="31" height="31">
        <path d="M31 0H0V31H31V0Z" fill="white"/>
    </mask>
    <g mask="url(#mask0_550_139)">
        <mask id="mask1_550_139" style="mask-type:luminance" maskUnits="userSpaceOnUse" x="0" y="0" width="31" height="31">
            <path d="M31 0H0V31H31V0Z" fill="white"/>
        </mask>
        <g mask="url(#mask1_550_139)">
            <path d="M3.87665 15.2192C3.95173 12.1146 5.23123 9.22495 7.47966 7.08273C9.72809 4.94044 12.6754 3.80194 15.7808 3.87696C18.8854 3.95198 21.775 5.2316 23.9173 7.47996C24.3854 7.97173 24.8098 8.50327 25.1857 9.06859L25.1858 5.46106C25.1859 4.92519 25.6202 4.49076 26.1561 4.49076C26.692 4.49076 27.1265 4.92519 27.1265 5.46112L27.1263 11.3023C27.1263 11.8381 26.6919 12.2725 26.156 12.2725H20.6379C20.1019 12.2725 19.6676 11.8381 19.6676 11.3023C19.6676 10.7664 20.1019 10.332 20.6379 10.332H23.6934C23.3504 9.7899 22.9549 9.28299 22.5124 8.81861C20.7276 6.94552 18.3204 5.8795 15.7339 5.817C13.1468 5.75376 10.6914 6.70298 8.81836 8.48771C6.94522 10.2724 5.87925 12.6797 5.81669 15.2662C5.7542 17.8526 6.70267 20.3086 8.48734 22.1817C10.272 24.0548 12.6793 25.1208 15.2658 25.1833C17.8526 25.2455 20.3083 24.2974 22.1813 22.5127C23.654 21.1095 24.6333 19.3158 25.0132 17.3252C25.1136 16.7989 25.622 16.4536 26.1481 16.554C26.6745 16.6545 27.0198 17.1626 26.9193 17.689C26.4631 20.0797 25.2876 22.2335 23.52 23.9177C21.3412 25.9936 18.5058 27.127 15.5072 27.1268C15.4114 27.1268 15.315 27.1257 15.2189 27.1234C12.1142 27.0483 9.22465 25.7687 7.08242 23.5204C4.94007 21.2719 3.80163 18.3239 3.87665 15.2192Z" fill="#EFF2F7"/>
        </g>
    </g>
</svg>
