<svg width="204" height="240" viewBox="0 0 204 240" fill="none" xmlns="http://www.w3.org/2000/svg">
    <mask id="mask0_104_23" style="mask-type:alpha" maskUnits="userSpaceOnUse" x="0" y="0" width="204" height="240">
        <rect width="204" height="240" fill="#D9D9D9"/>
    </mask>
    <g mask="url(#mask0_104_23)">
        <g filter="url(#filter0_i_104_23)">
            <path d="M-103.951 552.042L-110.571 565.502L-110.571 565.502L-103.951 552.042ZM51.4219 505.889L38.6655 497.998L38.6655 497.998L51.4219 505.889ZM-5.6275 472.549L8.71685 476.935L-5.6275 472.549ZM58.7166 629.933L55.197 644.514L58.7166 629.933ZM234.563 340.289L248.905 344.684L248.905 344.684L234.563 340.289ZM143.26 182.105L151.961 169.887L143.26 182.105ZM37.4659 3.64093L46.8246 -8.08146C42.5556 -11.4896 36.7714 -12.3077 31.7248 -10.2169C26.6781 -8.12617 23.1671 -3.45726 22.5591 1.97137L37.4659 3.64093ZM13.2532 85.0597C12.3311 93.2925 18.2576 100.714 26.4904 101.636C34.7232 102.558 42.1447 96.6316 43.0668 88.3988L13.2532 85.0597ZM98.1796 71.3065C104.654 76.4752 114.092 75.4169 119.261 68.9428C124.429 62.4687 123.371 53.0304 116.897 47.8617L98.1796 71.3065ZM-62.6996 696.994C-85.1376 658.824 -110.214 612.736 -120.539 581.229C-123.092 573.438 -124.51 567.214 -124.925 562.625C-125.384 557.568 -124.41 556.847 -125.052 557.82C-126.588 560.148 -128.77 559.731 -126.973 559.827C-124.466 559.959 -119.309 561.205 -110.571 565.502L-97.3316 538.582C-107.412 533.624 -116.882 530.318 -125.388 529.868C-134.605 529.381 -144.19 532.35 -150.094 541.3C-155.103 548.894 -155.465 558.031 -154.803 565.332C-154.099 573.101 -151.943 581.736 -149.047 590.572C-137.577 625.573 -110.856 674.271 -88.5621 712.197L-62.6996 696.994ZM-110.571 565.502C-60.1193 590.315 -21.2764 587.997 8.31155 572.139C36.6691 556.939 53.7754 530.597 64.1783 513.78L38.6655 497.998C28.2842 514.779 14.7496 534.65 -5.86056 545.697C-25.2403 556.084 -53.692 560.044 -97.3316 538.582L-110.571 565.502ZM64.1783 513.78C78.0437 491.367 83.852 470.36 82.8022 452.494C81.7534 434.643 73.6095 419.219 59.3694 411.55C44.8731 403.744 27.7219 405.957 13.3455 416.124C-0.801331 426.129 -12.4912 443.698 -19.9719 468.162L8.71685 476.935C14.9428 456.574 23.5975 445.618 30.6676 440.618C37.508 435.78 42.4458 436.51 45.1453 437.964C48.1008 439.556 52.2593 444.135 52.8539 454.254C53.4475 464.358 50.2403 479.287 38.6655 497.998L64.1783 513.78ZM-19.9719 468.162C-25.9486 487.708 -33.0983 524.275 -26.2546 559.658C-22.7916 577.562 -15.6312 595.731 -2.37342 611.097C10.9984 626.596 29.8516 638.397 55.197 644.514L62.2362 615.352C42.4224 610.569 29.252 601.828 20.3409 591.5C11.3157 581.039 5.93364 568.097 3.19951 553.961C-2.35097 525.264 3.48659 494.039 8.71685 476.935L-19.9719 468.162ZM55.197 644.514C110.355 657.828 157.206 628.489 188.748 589.448C220.224 550.49 239.589 498.432 239.589 457.478L209.589 457.478C209.589 490.563 193.255 536.134 165.413 570.595C137.637 604.973 101.552 624.842 62.2362 615.352L55.197 644.514ZM239.589 457.478C239.589 451.803 241.269 448.281 243.804 445.53C246.69 442.396 251.569 439.354 259.236 436.722C274.95 431.329 296.724 429.412 321.285 427.48C344.611 425.644 370.664 423.785 390.933 417.403C401.233 414.16 411.387 409.37 419.224 401.721C427.453 393.69 432.375 383.22 432.927 370.539L402.955 369.236C402.735 374.293 401.037 377.551 398.271 380.251C395.112 383.333 389.895 386.278 381.923 388.788C365.65 393.912 343.558 395.634 318.932 397.572C295.54 399.413 269.555 401.463 249.497 408.347C239.279 411.854 229.269 417.028 221.738 425.205C213.855 433.763 209.589 444.643 209.589 457.478L239.589 457.478ZM432.927 370.539C433.498 357.403 428.73 345.934 417.641 339.15C408.17 333.356 396.372 332.524 385.959 333.039C364.828 334.084 337.315 341.635 313.309 347.796C300.877 350.986 289.099 353.903 278.521 355.856C267.757 357.844 259.324 358.615 253.336 358.072C247.11 357.508 246.911 355.904 247.386 356.673C247.625 357.059 245.872 354.581 248.905 344.684L220.222 335.894C216.34 348.56 215.229 361.712 221.871 372.453C228.75 383.576 240.718 387.052 250.628 387.95C260.776 388.869 272.449 387.485 283.968 385.358C295.673 383.196 308.355 380.039 320.766 376.854C346.447 370.264 370.157 363.857 387.441 363.002C396.236 362.567 400.444 363.799 401.985 364.741C402.428 365.012 402.463 365.132 402.516 365.245C402.633 365.495 403.07 366.598 402.955 369.236L432.927 370.539ZM248.905 344.684C260.484 306.897 264.846 278.805 262.752 257.344C260.554 234.824 251.227 219.717 237.109 209.221C224.273 199.678 207.816 194.407 193.812 189.522C178.936 184.333 164.828 179.049 151.961 169.887L134.559 194.324C151.253 206.212 169.031 212.651 183.932 217.849C199.705 223.351 210.917 227.131 219.21 233.296C226.22 238.508 231.479 245.765 232.894 260.258C234.412 275.809 231.412 299.378 220.222 335.894L248.905 344.684ZM151.961 169.887C125.528 151.063 109.391 127.649 95.3321 98.9379C88.2329 84.4396 81.7771 68.8363 74.7076 51.7297C67.6911 34.7512 60.1292 16.4418 51.0214 -2.7815L23.9103 10.0634C32.6462 28.5017 39.9352 46.1363 46.9819 63.1877C53.9757 80.1109 60.7954 96.6236 68.3888 112.131C83.7154 143.432 102.632 171.588 134.559 194.324L151.961 169.887ZM22.5591 1.97137L13.2532 85.0597L43.0668 88.3988L52.3727 5.31049L22.5591 1.97137ZM28.1072 15.3633L98.1796 71.3065L116.897 47.8617L46.8246 -8.08146L28.1072 15.3633Z" fill="url(#paint0_linear_104_23)"/>
            <path d="M-103.951 552.042L-110.571 565.502L-110.571 565.502L-103.951 552.042ZM51.4219 505.889L38.6655 497.998L38.6655 497.998L51.4219 505.889ZM-5.6275 472.549L8.71685 476.935L-5.6275 472.549ZM58.7166 629.933L55.197 644.514L58.7166 629.933ZM234.563 340.289L248.905 344.684L248.905 344.684L234.563 340.289ZM143.26 182.105L151.961 169.887L143.26 182.105ZM37.4659 3.64093L46.8246 -8.08146C42.5556 -11.4896 36.7714 -12.3077 31.7248 -10.2169C26.6781 -8.12617 23.1671 -3.45726 22.5591 1.97137L37.4659 3.64093ZM13.2532 85.0597C12.3311 93.2925 18.2576 100.714 26.4904 101.636C34.7232 102.558 42.1447 96.6316 43.0668 88.3988L13.2532 85.0597ZM98.1796 71.3065C104.654 76.4752 114.092 75.4169 119.261 68.9428C124.429 62.4687 123.371 53.0304 116.897 47.8617L98.1796 71.3065ZM-62.6996 696.994C-85.1376 658.824 -110.214 612.736 -120.539 581.229C-123.092 573.438 -124.51 567.214 -124.925 562.625C-125.384 557.568 -124.41 556.847 -125.052 557.82C-126.588 560.148 -128.77 559.731 -126.973 559.827C-124.466 559.959 -119.309 561.205 -110.571 565.502L-97.3316 538.582C-107.412 533.624 -116.882 530.318 -125.388 529.868C-134.605 529.381 -144.19 532.35 -150.094 541.3C-155.103 548.894 -155.465 558.031 -154.803 565.332C-154.099 573.101 -151.943 581.736 -149.047 590.572C-137.577 625.573 -110.856 674.271 -88.5621 712.197L-62.6996 696.994ZM-110.571 565.502C-60.1193 590.315 -21.2764 587.997 8.31155 572.139C36.6691 556.939 53.7754 530.597 64.1783 513.78L38.6655 497.998C28.2842 514.779 14.7496 534.65 -5.86056 545.697C-25.2403 556.084 -53.692 560.044 -97.3316 538.582L-110.571 565.502ZM64.1783 513.78C78.0437 491.367 83.852 470.36 82.8022 452.494C81.7534 434.643 73.6095 419.219 59.3694 411.55C44.8731 403.744 27.7219 405.957 13.3455 416.124C-0.801331 426.129 -12.4912 443.698 -19.9719 468.162L8.71685 476.935C14.9428 456.574 23.5975 445.618 30.6676 440.618C37.508 435.78 42.4458 436.51 45.1453 437.964C48.1008 439.556 52.2593 444.135 52.8539 454.254C53.4475 464.358 50.2403 479.287 38.6655 497.998L64.1783 513.78ZM-19.9719 468.162C-25.9486 487.708 -33.0983 524.275 -26.2546 559.658C-22.7916 577.562 -15.6312 595.731 -2.37342 611.097C10.9984 626.596 29.8516 638.397 55.197 644.514L62.2362 615.352C42.4224 610.569 29.252 601.828 20.3409 591.5C11.3157 581.039 5.93364 568.097 3.19951 553.961C-2.35097 525.264 3.48659 494.039 8.71685 476.935L-19.9719 468.162ZM55.197 644.514C110.355 657.828 157.206 628.489 188.748 589.448C220.224 550.49 239.589 498.432 239.589 457.478L209.589 457.478C209.589 490.563 193.255 536.134 165.413 570.595C137.637 604.973 101.552 624.842 62.2362 615.352L55.197 644.514ZM239.589 457.478C239.589 451.803 241.269 448.281 243.804 445.53C246.69 442.396 251.569 439.354 259.236 436.722C274.95 431.329 296.724 429.412 321.285 427.48C344.611 425.644 370.664 423.785 390.933 417.403C401.233 414.16 411.387 409.37 419.224 401.721C427.453 393.69 432.375 383.22 432.927 370.539L402.955 369.236C402.735 374.293 401.037 377.551 398.271 380.251C395.112 383.333 389.895 386.278 381.923 388.788C365.65 393.912 343.558 395.634 318.932 397.572C295.54 399.413 269.555 401.463 249.497 408.347C239.279 411.854 229.269 417.028 221.738 425.205C213.855 433.763 209.589 444.643 209.589 457.478L239.589 457.478ZM432.927 370.539C433.498 357.403 428.73 345.934 417.641 339.15C408.17 333.356 396.372 332.524 385.959 333.039C364.828 334.084 337.315 341.635 313.309 347.796C300.877 350.986 289.099 353.903 278.521 355.856C267.757 357.844 259.324 358.615 253.336 358.072C247.11 357.508 246.911 355.904 247.386 356.673C247.625 357.059 245.872 354.581 248.905 344.684L220.222 335.894C216.34 348.56 215.229 361.712 221.871 372.453C228.75 383.576 240.718 387.052 250.628 387.95C260.776 388.869 272.449 387.485 283.968 385.358C295.673 383.196 308.355 380.039 320.766 376.854C346.447 370.264 370.157 363.857 387.441 363.002C396.236 362.567 400.444 363.799 401.985 364.741C402.428 365.012 402.463 365.132 402.516 365.245C402.633 365.495 403.07 366.598 402.955 369.236L432.927 370.539ZM248.905 344.684C260.484 306.897 264.846 278.805 262.752 257.344C260.554 234.824 251.227 219.717 237.109 209.221C224.273 199.678 207.816 194.407 193.812 189.522C178.936 184.333 164.828 179.049 151.961 169.887L134.559 194.324C151.253 206.212 169.031 212.651 183.932 217.849C199.705 223.351 210.917 227.131 219.21 233.296C226.22 238.508 231.479 245.765 232.894 260.258C234.412 275.809 231.412 299.378 220.222 335.894L248.905 344.684ZM151.961 169.887C125.528 151.063 109.391 127.649 95.3321 98.9379C88.2329 84.4396 81.7771 68.8363 74.7076 51.7297C67.6911 34.7512 60.1292 16.4418 51.0214 -2.7815L23.9103 10.0634C32.6462 28.5017 39.9352 46.1363 46.9819 63.1877C53.9757 80.1109 60.7954 96.6236 68.3888 112.131C83.7154 143.432 102.632 171.588 134.559 194.324L151.961 169.887ZM22.5591 1.97137L13.2532 85.0597L43.0668 88.3988L52.3727 5.31049L22.5591 1.97137ZM28.1072 15.3633L98.1796 71.3065L116.897 47.8617L46.8246 -8.08146L28.1072 15.3633Z" fill="url(#paint1_linear_104_23)" fill-opacity="0.5"/>
        </g>
    </g>
    <defs>
        <filter id="filter0_i_104_23" x="-155.053" y="-11.3593" width="588.026" height="727.556" filterUnits="userSpaceOnUse" color-interpolation-filters="sRGB">
            <feFlood flood-opacity="0" result="BackgroundImageFix"/>
            <feBlend mode="normal" in="SourceGraphic" in2="BackgroundImageFix" result="shape"/>
            <feColorMatrix in="SourceAlpha" type="matrix" values="0 0 0 0 0 0 0 0 0 0 0 0 0 0 0 0 0 0 127 0" result="hardAlpha"/>
            <feOffset dy="4"/>
            <feGaussianBlur stdDeviation="10"/>
            <feComposite in2="hardAlpha" operator="arithmetic" k2="-1" k3="1"/>
            <feColorMatrix type="matrix" values="0 0 0 0 0.980392 0 0 0 0 0.717647 0 0 0 0 0.0627451 0 0 0 0.43 0"/>
            <feBlend mode="normal" in2="shape" result="effect1_innerShadow_104_23"/>
        </filter>
        <linearGradient id="paint0_linear_104_23" x1="40.8946" y1="597.686" x2="95.821" y2="-155.297" gradientUnits="userSpaceOnUse">
            <stop stop-color="#FFED45"/>
            <stop offset="1" stop-color="#FAB710"/>
        </linearGradient>
        <linearGradient id="paint1_linear_104_23" x1="-112.884" y1="580.147" x2="82.3238" y2="501.458" gradientUnits="userSpaceOnUse">
            <stop stop-color="#FFED45"/>
            <stop offset="1" stop-color="#FAB710"/>
        </linearGradient>
    </defs>
</svg>
