<svg width="375" height="667" viewBox="0 0 375 667" fill="none" xmlns="http://www.w3.org/2000/svg">
    <path d="M1484.36 890.877L1437.77 872.733L1484.36 890.877ZM1105.12 1075.77L1118.67 1027.64L1118.67 1027.64L1105.12 1075.77ZM1155.88 911.423L1130.53 954.52L1130.53 954.52L1155.88 911.423ZM1309.41 1326.53L1267.91 1298.65L1309.41 1326.53ZM-51.6099 133.723L-100.616 143.641L-51.6099 133.723ZM232.211 706.017L239.766 755.443L239.766 755.443L232.211 706.017ZM248.356 8.38581L199.182 -0.666744C202.338 -17.8131 214.198 -32.0772 230.481 -38.3099C246.763 -44.5427 265.116 -41.844 278.915 -31.1881L248.356 8.38581ZM475.664 120.746C497.52 137.623 501.556 169.023 484.678 190.879C467.8 212.735 436.4 216.771 414.544 199.893L475.664 120.746ZM258.894 227.304C253.895 254.461 227.826 272.424 200.668 267.425C173.51 262.425 155.547 236.356 160.547 209.198L258.894 227.304ZM1649.6 1243.8C1625.45 1130.99 1592.65 999.574 1557.57 922.195C1548.92 903.122 1541.08 889.521 1534.51 880.914C1526.99 871.062 1525.77 873.809 1532.34 875.455C1544.17 878.417 1551.42 871.558 1550.04 872.965C1547 876.067 1539.96 885.912 1530.96 909.022L1437.77 872.733C1448.58 844.975 1461.58 820.351 1478.64 802.953C1497.36 783.86 1524.77 770.473 1556.63 778.448C1583.24 785.109 1601.92 804.414 1614 820.236C1627.03 837.303 1638.48 858.493 1648.64 880.901C1688.79 969.445 1723.43 1110.98 1747.39 1222.86L1649.6 1243.8ZM1530.96 909.022C1476.84 1047.98 1395.87 1114.89 1307.11 1137.59C1222.86 1159.13 1141.13 1137.85 1091.57 1123.89L1118.67 1027.64C1168.1 1041.55 1226.47 1054.99 1282.34 1040.71C1333.69 1027.58 1392.84 988.11 1437.77 872.733L1530.96 909.022ZM1091.57 1123.89C1024.01 1104.87 973.699 1073.81 942.479 1035.49C911.292 997.209 898.165 949.391 913.521 905.202C929.195 860.098 970.001 831.938 1018.81 825.715C1066.69 819.61 1122.48 833.77 1181.23 868.325L1130.53 954.52C1084.11 927.217 1050.68 922.461 1031.46 924.912C1013.17 927.244 1008.99 935.11 1007.98 938.027C1006.65 941.861 1005.13 954.061 1020 972.324C1034.85 990.547 1065.08 1012.55 1118.67 1027.64L1091.57 1123.89ZM1181.23 868.325C1227.89 895.771 1307.63 954.443 1358.07 1036.47C1383.66 1078.1 1402.71 1127.4 1404.4 1182.57C1406.1 1238.32 1389.93 1296.36 1350.92 1354.42L1267.91 1298.65C1296.34 1256.33 1305.45 1218.62 1304.44 1185.62C1303.42 1152.03 1291.78 1119.58 1272.88 1088.85C1234.33 1026.16 1169.86 977.652 1130.53 954.52L1181.23 868.325ZM1350.92 1354.42C1265.23 1481.96 1118.5 1508.23 987.132 1488.53C856.114 1468.88 724.944 1402.11 650.933 1321.44L724.621 1253.83C780.899 1315.18 890.006 1372.85 1001.96 1389.64C1113.57 1406.38 1212.52 1381.1 1267.91 1298.65L1350.92 1354.42ZM650.933 1321.44C645.793 1315.83 637.154 1310.75 619.161 1309.7C600.255 1308.59 574.881 1312.32 542.707 1321.63C478.153 1340.3 400.561 1376.93 317.9 1416.49C237.569 1454.93 152.192 1496.26 78.5103 1519.07C41.5699 1530.5 4.10829 1538.43 -30.5981 1537.77C-65.9143 1537.1 -102.524 1527.32 -130.85 1499.02L-60.1682 1428.28C-55.7994 1432.64 -47.4822 1437.43 -28.6989 1437.78C-9.30581 1438.15 16.5046 1433.57 48.9485 1423.53C114.036 1403.39 191.878 1365.93 274.735 1326.28C355.262 1287.75 440.827 1247 514.92 1225.57C552.069 1214.82 589.891 1207.82 624.993 1209.87C661.008 1211.97 697.189 1223.93 724.621 1253.83L650.933 1321.44ZM-130.85 1499.02C-146.847 1483.03 -157.075 1461.46 -164.24 1441.21C-171.753 1419.97 -177.666 1394.96 -182.424 1367.71C-191.952 1313.14 -197.688 1244.59 -200.638 1168.8C-206.549 1016.9 -201.456 830.354 -190.785 656.312C-180.12 482.38 -163.769 319.055 -146.786 213.598C-142.529 187.164 -138.144 163.806 -133.674 144.533C-129.423 126.201 -124.399 108.389 -118.044 94.9665C-115.373 89.3267 -109.459 77.6897 -98.2478 68.7511C-91.8826 63.6763 -81.4054 57.5767 -67.3117 56.7227C-52.5131 55.8259 -40.2412 61.0961 -31.7595 67.3956C-17.8329 77.7389 -11.9408 92.2648 -9.71609 98.0606C-6.64745 106.055 -4.39394 114.958 -2.60348 123.805L-100.616 143.641C-101.872 137.436 -102.816 134.571 -103.074 133.897C-104.177 131.024 -101.743 139.982 -91.384 147.676C-84.6862 152.65 -74.2258 157.325 -61.2634 156.54C-49.0061 155.797 -40.3903 150.515 -35.9088 146.942C-28.4647 141.007 -26.4078 135.109 -27.6637 137.762C-29.1609 140.924 -32.267 149.908 -36.2594 167.124C-40.0335 183.398 -44.0064 204.341 -48.0578 229.498C-64.3087 330.406 -80.4068 490.113 -90.9721 662.432C-101.531 834.641 -106.447 1017.57 -100.713 1164.91C-97.8406 1238.73 -92.3402 1302.25 -83.9145 1350.51C-79.6959 1374.67 -74.9522 1393.76 -69.9654 1407.86C-67.4921 1414.85 -65.1764 1419.99 -63.1977 1423.59C-61.1657 1427.29 -59.9929 1428.45 -60.1682 1428.28L-130.85 1499.02ZM-2.60348 123.805C37.8265 323.577 60.8681 466.577 96.5771 559.144C114.081 604.517 131.986 630.009 150.104 643.531C166.158 655.512 187.917 662.208 224.655 656.592L239.766 755.443C183.126 764.102 132.605 755.252 90.2924 723.672C50.0448 693.634 23.4983 647.549 3.2786 595.135C-36.4589 492.126 -61.9489 334.704 -100.616 143.641L-2.60348 123.805ZM224.655 656.592C269.125 649.793 293.104 627.171 307.17 591.534C322.808 551.914 325.991 495.154 317.939 426.383C301.957 289.886 244.926 130.371 202.187 27.5821L294.524 -10.8104C338.136 94.0794 399.613 264.031 417.261 414.754C426.024 489.594 424.802 565.884 400.187 628.248C374 694.595 321.877 742.891 239.766 755.443L224.655 656.592ZM278.915 -31.1881L475.664 120.746L414.544 199.893L217.796 47.9597L278.915 -31.1881ZM297.529 17.4384L258.894 227.304L160.547 209.198L199.182 -0.666744L297.529 17.4384Z" fill="url(#paint0_linear_112_37)"/>
    <defs>
        <linearGradient id="paint0_linear_112_37" x1="250.362" y1="16.3759" x2="374.608" y2="649.632" gradientUnits="userSpaceOnUse">
            <stop stop-color="#1E8AFF"/>
            <stop offset="1" stop-color="#153B7D"/>
        </linearGradient>
    </defs>
</svg>
