<svg xmlns="http://www.w3.org/2000/svg" width="181" height="40" viewBox="0 0 181 40" fill="none">
    <g clip-path="url(#clip0_72_553)">
        <path fill-rule="evenodd" clip-rule="evenodd" d="M19.92 36.3C23.1621 36.3 26.3313 35.3385 29.0268 33.5371C31.7224 31.7357 33.8231 29.1753 35.0633 26.1799C36.3036 23.1844 36.6276 19.8884 35.9943 16.7088C35.3611 13.5292 33.7991 10.6088 31.5059 8.31698C29.2128 6.0252 26.2914 4.46499 23.1114 3.83371C19.9314 3.20243 16.6356 3.52843 13.6409 4.77049C10.6462 6.01254 8.08711 8.11484 6.28735 10.8115C4.4876 13.5081 3.52802 16.6779 3.53 19.92C3.53 22.0719 3.95401 24.2027 4.77781 26.1907C5.60161 28.1786 6.80905 29.9848 8.33113 31.5059C9.85321 33.0271 11.6601 34.2334 13.6486 35.056C15.637 35.8786 17.7681 36.3013 19.92 36.3ZM19.92 39.83C23.8602 39.83 27.712 38.6615 30.988 36.4722C34.264 34.2829 36.8172 31.1712 38.3246 27.5307C39.832 23.8903 40.2259 19.8845 39.4565 16.0201C38.6871 12.1557 36.7889 8.60636 34.002 5.8209C31.2152 3.03543 27.6648 1.13903 23.8001 0.371538C19.9353 -0.39595 15.9297 -4.05312e-05 12.29 1.50919C8.65029 3.01842 5.5399 5.57317 3.35227 8.85032C1.16463 12.1275 -0.00197552 15.9798 2.5112e-06 19.92C0.00265381 25.2014 2.10253 30.2655 5.83797 33.9991C9.57341 37.7327 14.6386 39.83 19.92 39.83Z" fill="#EFF2F7"/>
        <path d="M22.4798 11.7799H20.6598C17.5398 11.7799 15.9798 13.3399 15.9798 15.6799C15.9798 18.2799 16.9798 19.5799 19.3598 21.1399L21.1798 22.4399L15.9998 30.4999H11.8198L16.7598 23.2199C13.8998 21.1399 12.3398 19.3199 12.3398 15.9399C12.3398 11.7799 15.1998 8.93994 20.6598 8.93994H26.1198V30.4999H22.4798V11.7799Z" fill="#EFF2F7"/>
        <path d="M50.7998 6.67993V32.9099H55.3698V23.5499H57.5998C63.5998 23.5499 67.3698 20.7899 67.3698 14.9799C67.3698 9.69993 63.8198 6.67993 57.6298 6.67993H50.7998ZM57.6298 19.9999H55.3698V10.2299H57.7798C60.9898 10.2299 62.7298 11.6999 62.7298 14.9799C62.7298 18.4199 60.7998 19.9799 57.6298 19.9799M84.1598 31.6299V27.9999C82.3892 29.1296 80.3398 29.7458 78.2398 29.7799C74.9598 29.7799 73.7098 28.2299 73.5198 25.0599H84.3498V22.6399C84.3498 16.0399 81.4498 13.5499 76.9598 13.5499C71.4798 13.5499 68.8798 17.7399 68.8798 23.4699C68.8798 30.0799 72.1298 33.2899 77.8798 33.2899C80.098 33.3737 82.2909 32.7959 84.1798 31.6299M76.8798 17.0999C79.1098 17.0999 79.7898 18.9399 79.7898 21.3199V21.6999H73.5198C73.6398 18.6999 74.7298 17.0999 76.8798 17.0999ZM98.4898 32.9099H103.59L96.3798 22.8299L102.72 13.9299H98.1898L91.8498 22.8299V13.9299H87.3598V32.9299H91.8498V23.7399L98.4898 32.9099ZM103.8 28.9999V32.8899C104.354 33.1463 104.959 33.2761 105.57 33.2699C109.42 33.2699 110.4 30.5499 110.63 24.2699L110.9 17.4699H115.46V32.9099H120V13.9099H107.08L106.71 24.0599C106.56 28.0599 106.29 29.3399 104.82 29.3399C104.458 29.3415 104.106 29.2218 103.82 28.9999M137.93 19.9999C137.93 15.3999 135.59 13.6599 130.83 13.6599C128.49 13.6499 126.188 14.2495 124.15 15.3999V19.0999C125.984 17.909 128.114 17.2544 130.3 17.2099C132.45 17.2099 133.44 17.9599 133.44 19.9999V21.0599H132.72C125.85 21.0599 122.79 23.3199 122.79 27.1699C122.79 31.0199 125.13 33.1699 128.61 33.1699C129.467 33.247 130.33 33.1277 131.134 32.821C131.938 32.5143 132.662 32.0283 133.25 31.3999H133.44C133.479 31.9172 133.593 32.4259 133.78 32.9099H138.15C138 31.3599 137.93 29.8099 137.93 28.2699V19.9999ZM133.44 28.4199C133.072 28.9183 132.586 29.3173 132.026 29.581C131.465 29.8446 130.848 29.9645 130.23 29.9299C129.86 29.9786 129.483 29.9441 129.128 29.8289C128.773 29.7136 128.448 29.5206 128.177 29.2638C127.905 29.0071 127.695 28.6931 127.561 28.3447C127.426 27.9963 127.371 27.6223 127.4 27.2499C127.4 25.0999 128.94 24.3099 132.79 24.3099H133.44V28.4199ZM157.73 32.9499H162.11L162.03 13.9499H155.88L151.76 26.5899L148.07 13.9499H141.54V32.9499H145.35V18.7199L149.46 32.9099H153.12L157.73 18.7199V32.9499ZM180.05 19.9999C180.05 15.3999 177.71 13.6599 172.96 13.6599C170.62 13.6499 168.318 14.2495 166.28 15.3999V19.0999C168.113 17.9076 170.243 17.2528 172.43 17.2099C174.58 17.2099 175.56 17.9599 175.56 19.9999V21.0599H174.84C167.97 21.0599 164.92 23.3199 164.92 27.1699C164.92 31.0199 167.26 33.1699 170.73 33.1699C171.587 33.247 172.45 33.1277 173.254 32.821C174.058 32.5143 174.782 32.0283 175.37 31.3999H175.56C175.608 31.9157 175.723 32.4231 175.9 32.9099H180.28C180.13 31.3599 180.05 29.8099 180.05 28.2699V19.9999ZM175.56 28.4199C175.193 28.919 174.707 29.3185 174.146 29.5822C173.586 29.8459 172.968 29.9654 172.35 29.9299C171.98 29.9786 171.603 29.9441 171.248 29.8289C170.893 29.7136 170.568 29.5206 170.297 29.2638C170.025 29.0071 169.815 28.6931 169.681 28.3447C169.546 27.9963 169.491 27.6223 169.52 27.2499C169.52 25.0999 171.07 24.3099 174.92 24.3099H175.56V28.4199Z" fill="#EFF2F7"/>
    </g>
    <defs>
        <clipPath id="clip0_72_553">
            <rect width="180.28" height="39.83" fill="white"/>
        </clipPath>
    </defs>
</svg>