<svg width="375" height="234" viewBox="0 0 375 234" fill="none" xmlns="http://www.w3.org/2000/svg">
    <mask id="mask0_201_3" style="mask-type:alpha" maskUnits="userSpaceOnUse" x="0" y="0" width="375" height="234">
        <rect width="375" height="234" fill="#D9D9D9"/>
    </mask>
    <g mask="url(#mask0_201_3)">
        <g filter="url(#filter0_i_201_3)">
            <path d="M66.0486 119.042L59.4288 132.503L66.0486 119.042ZM261.366 87.558L272.872 97.1813L261.366 87.558ZM204.316 54.2174L191.78 45.9812L204.316 54.2174ZM228.717 196.933L225.197 211.514L228.717 196.933ZM404.563 -92.7111L418.905 -88.3161V-88.3162L404.563 -92.7111ZM313.26 -250.895L321.961 -263.113L313.26 -250.895ZM200.466 -429.359L209.825 -441.081C205.556 -444.49 199.771 -445.308 194.725 -443.217C189.678 -441.126 186.167 -436.457 185.559 -431.029L200.466 -429.359ZM176.253 -347.94C175.331 -339.708 181.258 -332.286 189.49 -331.364C197.723 -330.442 205.145 -336.368 206.067 -344.601L176.253 -347.94ZM261.18 -361.694C267.654 -356.525 277.092 -357.583 282.261 -364.057C287.429 -370.531 286.371 -379.97 279.897 -385.138L261.18 -361.694ZM107.3 263.994C84.8624 225.824 59.7861 179.736 49.461 148.229C46.9076 140.438 45.4903 134.214 45.0745 129.625C44.6164 124.568 45.5898 123.847 44.9483 124.82C43.4122 127.148 41.2296 126.731 43.0265 126.826C45.5343 126.959 50.691 128.205 59.4288 132.503L72.6684 105.582C62.5878 100.624 53.1179 97.3185 44.6117 96.8684C35.3945 96.3807 25.8104 99.3501 19.9063 108.3C14.8968 115.894 14.5355 125.031 15.1969 132.332C15.9007 140.101 18.0572 148.736 20.9528 157.572C32.4232 192.573 59.1438 241.271 81.4379 279.197L107.3 263.994ZM59.4288 132.503C161.345 182.625 244.365 131.266 272.872 97.1813L249.86 77.9347C227.675 104.46 158.935 148.008 72.6684 105.582L59.4288 132.503ZM272.872 97.1813C288.802 78.1342 297.541 59.9843 298.885 43.8637C300.292 26.9985 293.325 12.1537 278.944 4.89459C265.553 -1.8649 249.213 -0.260071 234.404 6.66788C219.316 13.7265 204.365 26.825 191.78 45.9812L216.853 62.4537C226.98 47.0386 237.954 38.1276 247.116 33.8414C256.558 29.4244 262.796 30.3489 265.425 31.6761C267.065 32.5037 269.561 34.5126 268.989 41.3708C268.355 48.9735 263.675 61.4167 249.86 77.9347L272.872 97.1813ZM191.78 45.9812C180.902 62.5381 162.71 95.3334 159.814 128.091C158.334 144.828 160.747 162.797 171.474 178.428C182.274 194.168 200.066 205.448 225.197 211.514L232.236 182.352C212.208 177.518 201.739 169.512 196.21 161.454C190.606 153.287 188.618 142.945 189.697 130.733C191.92 105.59 206.687 77.9278 216.853 62.4537L191.78 45.9812ZM225.197 211.514C280.355 224.828 327.206 195.489 358.748 156.448C390.224 117.49 409.589 65.4321 409.589 24.4779H379.589C379.589 57.563 363.255 103.134 335.413 137.595C307.637 171.973 271.552 191.842 232.236 182.352L225.197 211.514ZM409.589 24.4779C409.589 18.8027 411.269 15.2812 413.804 12.5296C416.69 9.39648 421.569 6.35394 429.236 3.72214C444.95 -1.67123 466.724 -3.58768 491.285 -5.52042C514.611 -7.35596 540.664 -9.21457 560.933 -15.597C571.233 -18.8402 581.387 -23.6305 589.224 -31.2791C597.453 -39.3099 602.375 -49.7796 602.927 -62.461L572.955 -63.7641C572.735 -58.707 571.037 -55.4492 568.271 -52.749C565.112 -49.6665 559.895 -46.7221 551.923 -44.212C535.65 -39.0879 513.558 -37.3658 488.932 -35.4279C465.54 -33.5872 439.555 -31.5374 419.497 -24.653C409.279 -21.1459 399.269 -15.9717 391.738 -7.79529C383.855 0.762573 379.589 11.6434 379.589 24.4779H409.589ZM602.927 -62.461C603.498 -75.5974 598.73 -87.0656 587.641 -93.8497C578.17 -99.6435 566.372 -100.476 555.959 -99.9612C534.828 -98.9159 507.315 -91.3651 483.309 -85.2044C470.877 -82.014 459.099 -79.097 448.521 -77.1437C437.757 -75.1562 429.324 -74.3853 423.336 -74.928C417.11 -75.4921 416.911 -77.0958 417.386 -76.3271C417.625 -75.9411 415.872 -78.4193 418.905 -88.3161L390.222 -97.106C386.34 -84.4399 385.229 -71.2882 391.871 -60.5475C398.75 -49.4242 410.718 -45.9484 420.628 -45.0504C430.776 -44.131 442.449 -45.5154 453.968 -47.6424C465.673 -49.8038 478.354 -52.9608 490.766 -56.146C516.447 -62.7364 540.157 -69.1429 557.441 -69.9978C566.236 -70.4328 570.444 -69.2014 571.985 -68.2588C572.428 -67.9877 572.463 -67.868 572.516 -67.7552C572.633 -67.5053 573.07 -66.4016 572.955 -63.7641L602.927 -62.461ZM418.905 -88.3162C430.484 -126.103 434.846 -154.195 432.752 -175.656C430.554 -198.176 421.227 -213.283 407.109 -223.779C394.273 -233.322 377.816 -238.593 363.812 -243.478C348.936 -248.667 334.828 -253.951 321.961 -263.113L304.559 -238.676C321.253 -226.788 339.031 -220.349 353.932 -215.151C369.705 -209.649 380.917 -205.869 389.21 -199.704C396.22 -194.492 401.479 -187.235 402.894 -172.742C404.412 -157.191 401.412 -133.622 390.222 -97.106L418.905 -88.3162ZM321.961 -263.113C295.212 -282.162 277.28 -305.904 261.515 -334.674C245.302 -364.261 232.474 -396.834 214.021 -435.781L186.91 -422.937C204.145 -386.561 218.534 -350.681 235.206 -320.257C252.326 -289.015 272.948 -261.187 304.559 -238.676L321.961 -263.113ZM185.559 -431.029L176.253 -347.94L206.067 -344.601L215.373 -427.69L185.559 -431.029ZM191.107 -417.637L261.18 -361.694L279.897 -385.138L209.825 -441.081L191.107 -417.637Z" fill="url(#paint0_linear_201_3)"/>
            <path d="M66.0486 119.042L59.4288 132.503L66.0486 119.042ZM261.366 87.558L272.872 97.1813L261.366 87.558ZM204.316 54.2174L191.78 45.9812L204.316 54.2174ZM228.717 196.933L225.197 211.514L228.717 196.933ZM404.563 -92.7111L418.905 -88.3161V-88.3162L404.563 -92.7111ZM313.26 -250.895L321.961 -263.113L313.26 -250.895ZM200.466 -429.359L209.825 -441.081C205.556 -444.49 199.771 -445.308 194.725 -443.217C189.678 -441.126 186.167 -436.457 185.559 -431.029L200.466 -429.359ZM176.253 -347.94C175.331 -339.708 181.258 -332.286 189.49 -331.364C197.723 -330.442 205.145 -336.368 206.067 -344.601L176.253 -347.94ZM261.18 -361.694C267.654 -356.525 277.092 -357.583 282.261 -364.057C287.429 -370.531 286.371 -379.97 279.897 -385.138L261.18 -361.694ZM107.3 263.994C84.8624 225.824 59.7861 179.736 49.461 148.229C46.9076 140.438 45.4903 134.214 45.0745 129.625C44.6164 124.568 45.5898 123.847 44.9483 124.82C43.4122 127.148 41.2296 126.731 43.0265 126.826C45.5343 126.959 50.691 128.205 59.4288 132.503L72.6684 105.582C62.5878 100.624 53.1179 97.3185 44.6117 96.8684C35.3945 96.3807 25.8104 99.3501 19.9063 108.3C14.8968 115.894 14.5355 125.031 15.1969 132.332C15.9007 140.101 18.0572 148.736 20.9528 157.572C32.4232 192.573 59.1438 241.271 81.4379 279.197L107.3 263.994ZM59.4288 132.503C161.345 182.625 244.365 131.266 272.872 97.1813L249.86 77.9347C227.675 104.46 158.935 148.008 72.6684 105.582L59.4288 132.503ZM272.872 97.1813C288.802 78.1342 297.541 59.9843 298.885 43.8637C300.292 26.9985 293.325 12.1537 278.944 4.89459C265.553 -1.8649 249.213 -0.260071 234.404 6.66788C219.316 13.7265 204.365 26.825 191.78 45.9812L216.853 62.4537C226.98 47.0386 237.954 38.1276 247.116 33.8414C256.558 29.4244 262.796 30.3489 265.425 31.6761C267.065 32.5037 269.561 34.5126 268.989 41.3708C268.355 48.9735 263.675 61.4167 249.86 77.9347L272.872 97.1813ZM191.78 45.9812C180.902 62.5381 162.71 95.3334 159.814 128.091C158.334 144.828 160.747 162.797 171.474 178.428C182.274 194.168 200.066 205.448 225.197 211.514L232.236 182.352C212.208 177.518 201.739 169.512 196.21 161.454C190.606 153.287 188.618 142.945 189.697 130.733C191.92 105.59 206.687 77.9278 216.853 62.4537L191.78 45.9812ZM225.197 211.514C280.355 224.828 327.206 195.489 358.748 156.448C390.224 117.49 409.589 65.4321 409.589 24.4779H379.589C379.589 57.563 363.255 103.134 335.413 137.595C307.637 171.973 271.552 191.842 232.236 182.352L225.197 211.514ZM409.589 24.4779C409.589 18.8027 411.269 15.2812 413.804 12.5296C416.69 9.39648 421.569 6.35394 429.236 3.72214C444.95 -1.67123 466.724 -3.58768 491.285 -5.52042C514.611 -7.35596 540.664 -9.21457 560.933 -15.597C571.233 -18.8402 581.387 -23.6305 589.224 -31.2791C597.453 -39.3099 602.375 -49.7796 602.927 -62.461L572.955 -63.7641C572.735 -58.707 571.037 -55.4492 568.271 -52.749C565.112 -49.6665 559.895 -46.7221 551.923 -44.212C535.65 -39.0879 513.558 -37.3658 488.932 -35.4279C465.54 -33.5872 439.555 -31.5374 419.497 -24.653C409.279 -21.1459 399.269 -15.9717 391.738 -7.79529C383.855 0.762573 379.589 11.6434 379.589 24.4779H409.589ZM602.927 -62.461C603.498 -75.5974 598.73 -87.0656 587.641 -93.8497C578.17 -99.6435 566.372 -100.476 555.959 -99.9612C534.828 -98.9159 507.315 -91.3651 483.309 -85.2044C470.877 -82.014 459.099 -79.097 448.521 -77.1437C437.757 -75.1562 429.324 -74.3853 423.336 -74.928C417.11 -75.4921 416.911 -77.0958 417.386 -76.3271C417.625 -75.9411 415.872 -78.4193 418.905 -88.3161L390.222 -97.106C386.34 -84.4399 385.229 -71.2882 391.871 -60.5475C398.75 -49.4242 410.718 -45.9484 420.628 -45.0504C430.776 -44.131 442.449 -45.5154 453.968 -47.6424C465.673 -49.8038 478.354 -52.9608 490.766 -56.146C516.447 -62.7364 540.157 -69.1429 557.441 -69.9978C566.236 -70.4328 570.444 -69.2014 571.985 -68.2588C572.428 -67.9877 572.463 -67.868 572.516 -67.7552C572.633 -67.5053 573.07 -66.4016 572.955 -63.7641L602.927 -62.461ZM418.905 -88.3162C430.484 -126.103 434.846 -154.195 432.752 -175.656C430.554 -198.176 421.227 -213.283 407.109 -223.779C394.273 -233.322 377.816 -238.593 363.812 -243.478C348.936 -248.667 334.828 -253.951 321.961 -263.113L304.559 -238.676C321.253 -226.788 339.031 -220.349 353.932 -215.151C369.705 -209.649 380.917 -205.869 389.21 -199.704C396.22 -194.492 401.479 -187.235 402.894 -172.742C404.412 -157.191 401.412 -133.622 390.222 -97.106L418.905 -88.3162ZM321.961 -263.113C295.212 -282.162 277.28 -305.904 261.515 -334.674C245.302 -364.261 232.474 -396.834 214.021 -435.781L186.91 -422.937C204.145 -386.561 218.534 -350.681 235.206 -320.257C252.326 -289.015 272.948 -261.187 304.559 -238.676L321.961 -263.113ZM185.559 -431.029L176.253 -347.94L206.067 -344.601L215.373 -427.69L185.559 -431.029ZM191.107 -417.637L261.18 -361.694L279.897 -385.138L209.825 -441.081L191.107 -417.637Z" fill="url(#paint1_linear_201_3)" fill-opacity="0.5"/>
        </g>
    </g>
    <defs>
        <filter id="filter0_i_201_3" x="14.947" y="-444.359" width="588.026" height="727.556" filterUnits="userSpaceOnUse" color-interpolation-filters="sRGB">
            <feFlood flood-opacity="0" result="BackgroundImageFix"/>
            <feBlend mode="normal" in="SourceGraphic" in2="BackgroundImageFix" result="shape"/>
            <feColorMatrix in="SourceAlpha" type="matrix" values="0 0 0 0 0 0 0 0 0 0 0 0 0 0 0 0 0 0 127 0" result="hardAlpha"/>
            <feOffset dy="4"/>
            <feGaussianBlur stdDeviation="10"/>
            <feComposite in2="hardAlpha" operator="arithmetic" k2="-1" k3="1"/>
            <feColorMatrix type="matrix" values="0 0 0 0 0.980392 0 0 0 0 0.717647 0 0 0 0 0.0627451 0 0 0 0.43 0"/>
            <feBlend mode="normal" in2="shape" result="effect1_innerShadow_201_3"/>
        </filter>
        <linearGradient id="paint0_linear_201_3" x1="210.895" y1="164.686" x2="265.821" y2="-588.297" gradientUnits="userSpaceOnUse">
            <stop stop-color="#FFED45"/>
            <stop offset="1" stop-color="#FAB710"/>
        </linearGradient>
        <linearGradient id="paint1_linear_201_3" x1="57.1156" y1="147.147" x2="252.324" y2="68.4583" gradientUnits="userSpaceOnUse">
            <stop stop-color="#FFED45"/>
            <stop offset="1" stop-color="#FAB710"/>
        </linearGradient>
    </defs>
</svg>
